<svg width="12839" height="12839" viewBox="0 0 12839.114 14214.333" xmlns="http://www.w3.org/2000/svg"><path transform="translate(-4589.6 -7780)" d="M10880 10820a1760 3040 0 1 1-3520 0 1760 3040 0 1 1 3520 0z" style="fill:#a00"/><path transform="translate(-809.6 -7624.7)" d="M10880 10820a1760 3040 0 1 1-3520 0 1760 3040 0 1 1 3520 0z" style="fill:#a00"/><path transform="rotate(-10.099 -8393.06 41283.571) scale(.8132)" d="M10880 10820a1760 3040 0 1 1-3520 0 1760 3040 0 1 1 3520 0z" style="fill:#a00"/><path transform="matrix(-.83511 -.14875 -.14875 .83511 20527 -1215)" d="M10880 10820a1760 3040 0 1 1-3520 0 1760 3040 0 1 1 3520 0z" style="fill:#a00"/><path d="M6370.4 6612.2c-743.85 0-1494.5 251.73-1684.8 825.53s-340.68 1275.9-827.19 1762.4-821.04 453.09-1463.7 670.53-1324.3 1063.4-1324.3 2091.5 1211.6 2192.7 1806.8 2192.7 991.82-30.958 1092.2-272c100.34-241.04 300.92-441.62 548.34-441.62s448 200.58 617.64 420.92 562.22 317.83 1021.8 317.83 986.65-59.119 1193.6-305.84 282.02-432.91 526.91-432.91 448 200.58 665.49 516.38 708.39 258.86 1204.5 241.18 1647.7-1127 1647.7-2086.6-354.46-1702-917.16-1945.3c-562.69-243.3-1022.5-93.332-1545.8-616.69s-558.81-1678.9-867.88-2112.2-950.3-825.81-1694.2-825.81z" style="fill:#a00"/></svg>