<svg width="76" height="90" xmlns="http://www.w3.org/2000/svg"><g transform="translate(-2765.67 1620.89)"><path d="M2775.1-1620.9a2.418 3.05 0 0 0-2.473 3.047v24.728a28 25 0 0 0-2 9.224 28 25 0 0 0 2.637 10.525c-1.054.32-2.123.746-3.12 1.201-2.486 1.139-4.517 2.428-4.517 2.428l.534.844s1.985-1.256 4.4-2.361a23.744 23.744 0 0 1 3.17-1.206 28 25 0 0 0 1.22 1.899c-1.269.323-2.593.843-3.806 1.398-2.487 1.139-4.518 2.426-4.518 2.426l.534.844s1.985-1.254 4.4-2.36c1.207-.552 2.52-1.065 3.724-1.363.117-.029.226-.046.34-.07a28 25 0 0 0 1.602 1.877 11.13 11.13 0 0 0-1.18.223c-1.298.32-2.659.854-3.902 1.424a42.477 42.477 0 0 0-4.518 2.425l.534.844s1.985-1.254 4.4-2.36c1.207-.552 2.52-1.065 3.724-1.363a8.283 8.283 0 0 1 1.864-.257 28 25 0 0 0 1.554 1.365 21 20 0 0 0-2.076 8.617 21 20 0 0 0 9.14 16.506 5.896 8.076 78.404 0 0-1.972 5.443 5.896 8.076 78.404 0 0 9.467 3.725 5.896 8.076 78.404 0 0 4.363-2.309 8.076 5.896 11.596 0 0 4.365 2.309 8.076 5.896 11.596 0 0 9.467-3.723 8.076 5.896 11.596 0 0-1.988-5.46 21 20 0 0 0 5.482-5.19c1.715.802 3.387 2.15 5.09 3.51 4.218 3.366 9.822 4.292 14.115 1.683 4.292-2.608 6.525-7.917 6.47-14.472a4 4 0 0 0-4.093-4.021 4 4 0 0 0-3.907 4.09c.04 4.752-1.49 6.878-2.624 7.568-1.135.69-2.622.775-4.971-1.1-1.56-1.245-3.78-3.203-6.828-4.574a21 20 0 0 0 .424-3.984 21 20 0 0 0-2.07-8.614 28 25 0 0 0 1.53-1.369c.564.01 1.199.09 1.88.258 1.203.298 2.517.81 3.724 1.363a41.917 41.917 0 0 1 4.4 2.36l.536-.844s-2.033-1.287-4.52-2.426c-1.243-.569-2.602-1.103-3.9-1.424a11.299 11.299 0 0 0-1.15-.218 28 25 0 0 0 1.597-1.875c.105.023.205.038.313.064 1.203.297 2.516.81 3.724 1.363a41.737 41.737 0 0 1 4.4 2.36l.536-.844s-2.033-1.288-4.52-2.426c-1.22-.559-2.552-1.082-3.828-1.404a28 25 0 0 0 1.223-1.899c1.052.305 2.157.739 3.19 1.211a41.703 41.703 0 0 1 4.4 2.361l.535-.843s-2.033-1.29-4.52-2.428a25.14 25.14 0 0 0-3.119-1.201 28 25 0 0 0 2.639-10.525 28 25 0 0 0-2-9.252v-24.701a2.418 3.05 0 0 0-2.475-3.047 2.418 3.05 0 0 0-1.152.406l-16.656 12.127a28 25 0 0 0-5.717-.533 28 25 0 0 0-5.693.551l-16.681-12.144a2.418 3.05 0 0 0-1.152-.406z"/><path d="M2775.6-1614.9v16.754a28 25 0 0 1 5.682-5.393l-5.682-11.36zm46 0-5.691 11.383a28 25 0 0 1 5.691 5.408v-16.79z" fill="#ce8882"/><ellipse cx="2798.6" cy="-1570.9" rx="3" ry="2" fill="#4d4d4d"/><path d="M2784.2-1586.9c-2.97.056-5.747 1.273-7.426 3.465a.87.87 0 0 0-.174.617c.366 3.594 3.394 6.586 7.39 7.576 4 .985 8.189-.205 10.427-3.127a.87.87 0 0 0 .174-.617c-.365-3.594-3.392-6.586-7.387-7.576-1-.246-2.011-.357-3.002-.338zm28.789 0a11.65 11.65 0 0 0-3.002.338c-3.994.99-7.021 3.982-7.387 7.576a.87.87 0 0 0 .174.617c2.238 2.922 6.427 4.112 10.428 3.127 3.995-.99 7.023-3.982 7.389-7.576a.87.87 0 0 0-.174-.617c-1.679-2.192-4.455-3.409-7.426-3.465z" color="#000" fill="#fea" style="block-progression:tb;isolation:auto;mix-blend-mode:normal;text-decoration-color:#000;text-decoration-line:none;text-decoration-style:solid;text-indent:0;text-transform:none;white-space:normal"/><path d="M2788.1-1584.9a2.5 3 0 0 0-2.5 3 2.5 3 0 0 0 2.5 3 2.5 3 0 0 0 2.5-3 2.5 3 0 0 0-2.5-3zm21 0a2.5 3 0 0 0-2.5 3 2.5 3 0 0 0 2.5 3 2.5 3 0 0 0 2.5-3 2.5 3 0 0 0-2.5-3z"/></g></svg>